<?xml version="1.0" encoding="UTF-8" standalone="no"?>
<!DOCTYPE svg PUBLIC "-//W3C//DTD SVG 1.1//EN" "http://www.w3.org/Graphics/SVG/1.1/DTD/svg11.dtd">
<svg xmlns="http://www.w3.org/2000/svg" version="1.1" viewBox="0.00 0.00 260.00 260.00">
<g stroke-width="2.00" fill="none" stroke-linecap="butt">
<path stroke="#b0b0b4" vector-effect="non-scaling-stroke" d="
  M 112.96 37.35
  Q 108.73 32.77 103.72 29.14
  C 100.82 27.04 99.26 25.00 100.20 21.50
  A 0.38 0.38 0.0 0 0 99.56 21.14
  C 92.58 28.31 93.40 34.49 94.82 43.59
  A 0.71 0.71 0.0 0 1 94.12 44.41
  L 90.21 44.44
  A 0.34 0.34 0.0 0 0 90.00 45.05
  L 92.41 47.02
  Q 92.96 47.46 92.55 48.04
  Q 90.72 50.65 89.08 53.36
  C 86.57 57.50 80.80 60.43 77.44 55.35
  Q 76.93 54.59 76.91 55.50
  C 76.81 60.59 82.09 60.11 85.54 59.92
  A 0.38 0.37 21.9 0 1 85.82 60.57
  C 83.46 62.76 81.95 64.70 82.06 68.20
  C 82.28 75.21 82.38 80.25 78.66 85.41
  Q 70.42 96.87 61.59 106.43
  C 59.67 108.50 58.89 110.53 58.47 113.17
  C 57.78 117.54 61.35 124.41 63.16 128.38
  A 1.57 1.57 0.0 0 0 64.30 129.27
  Q 67.51 129.86 70.31 131.78
  C 75.59 135.42 81.90 132.06 85.42 127.76
  C 86.29 126.68 86.29 125.63 86.55 124.31
  Q 86.65 123.80 87.08 123.51
  Q 95.96 117.48 104.83 111.44
  C 105.86 110.74 107.66 110.30 108.91 110.41
  C 127.33 112.06 140.19 100.46 145.40 83.54
  Q 146.11 81.23 146.16 83.65
  C 146.35 93.22 144.95 103.22 153.49 110.32
  C 159.29 115.14 171.47 113.76 171.83 104.25
  Q 171.89 102.47 170.16 97.67
  Q 167.36 89.89 168.20 81.50
  Q 168.24 81.13 167.77 81.22
  Q 167.37 81.30 167.29 81.69
  Q 165.53 89.64 167.43 94.76
  Q 169.56 100.52 169.56 102.49
  C 169.55 108.60 164.36 112.90 158.57 110.15
  C 151.81 106.95 149.79 101.85 149.20 94.29
  Q 148.60 86.68 149.01 78.98
  Q 149.03 78.50 149.44 78.24
  C 159.89 71.54 171.45 68.36 183.29 73.02
  Q 188.54 75.08 190.19 76.04
  C 196.28 79.57 196.36 84.41 196.95 90.87
  Q 196.99 91.37 197.40 91.65
  L 215.12 103.65
  A 1.28 1.27 24.0 0 1 215.65 105.02
  C 214.41 109.93 214.98 117.04 208.28 118.00
  A 0.96 0.95 8.7 0 0 207.55 118.53
  C 205.74 122.17 199.29 122.28 195.49 122.46
  Q 185.63 122.95 175.75 123.62
  C 163.78 124.43 159.24 140.85 159.97 150.25
  Q 160.28 154.20 158.61 161.51
  Q 157.95 164.40 156.03 167.99
  C 151.71 176.10 148.06 186.68 150.02 195.66
  A 0.80 0.80 0.0 0 0 150.65 196.28
  C 156.72 197.44 164.98 195.22 170.91 193.83
  A 1.50 1.49 70.1 0 1 172.59 194.62
  Q 176.09 201.61 172.27 208.24
  A 0.38 0.37 3.2 0 0 172.75 208.77
  C 200.92 196.71 222.34 175.25 228.46 144.74
  Q 233.04 121.93 230.12 99.08
  A 0.38 0.38 0.0 0 0 229.40 98.97
  Q 227.01 104.09 223.59 108.61
  Q 222.11 110.58 222.42 108.14
  C 224.85 89.23 220.40 70.44 207.77 55.47
  A 0.39 0.39 0.0 0 0 207.09 55.78
  Q 208.91 68.38 206.93 80.93
  A 0.39 0.39 0.0 0 1 206.24 81.11
  L 205.74 80.46
  Q 205.57 80.25 205.50 79.99
  Q 196.32 47.56 168.00 29.52
  A 0.31 0.31 0.0 0 0 167.59 29.98
  C 175.67 39.98 182.34 51.53 182.48 64.77
  A 0.52 0.51 -82.9 0 1 181.83 65.28
  Q 181.55 65.21 181.47 64.88
  Q 181.37 64.47 181.34 64.39
  C 172.90 44.39 155.63 31.49 136.02 24.55
  A 0.27 0.26 80.0 0 0 135.73 24.97
  C 141.66 32.28 146.00 41.12 142.19 50.64
  A 0.51 0.51 0.0 0 1 141.21 50.51
  Q 139.36 34.12 124.34 27.78
  C 120.91 26.33 117.87 18.22 116.21 14.82
  A 0.86 0.86 0.0 0 0 114.81 14.60
  C 108.68 21.15 109.72 29.44 113.27 37.14
  Q 113.77 38.23 112.96 37.35"
/>
<path stroke="#a0d4db" vector-effect="non-scaling-stroke" d="
  M 112.42 213.59
  Q 112.71 213.19 114.51 213.27
  Q 128.46 213.86 142.40 214.56
  C 151.97 215.04 166.28 215.04 167.82 202.62
  Q 168.03 200.95 166.39 200.60
  Q 165.43 200.39 164.01 200.57
  Q 140.97 203.42 117.99 199.97
  Q 108.59 198.56 99.22 196.90
  C 88.65 195.04 81.34 200.13 73.81 206.54
  Q 73.43 206.86 73.06 206.54
  C 49.89 186.15 33.88 160.49 33.61 128.75
  Q 33.50 115.50 34.78 103.74
  C 37.85 75.57 56.19 51.22 79.14 35.20
  A 0.33 0.33 0.0 0 0 78.82 34.63
  C 63.00 41.72 49.54 54.83 39.92 67.93
  Q 14.84 102.08 19.03 144.01
  C 22.52 178.92 42.71 207.55 72.52 225.50
  C 119.26 253.65 177.91 244.13 213.46 202.99
  A 1.30 1.30 0.0 0 0 213.00 200.96
  C 207.41 198.48 204.10 200.57 199.67 204.72
  Q 182.86 220.43 161.34 226.36
  Q 134.58 233.73 112.82 216.47
  A 2.10 2.10 0.0 0 1 112.42 213.59"
/>
<path stroke="#b0b0b4" vector-effect="non-scaling-stroke" d="
  M 111.18 123.15
  L 108.82 119.80
  A 0.76 0.75 -58.0 0 0 107.46 120.12
  Q 106.70 124.67 104.49 128.91
  C 100.41 136.76 102.55 144.46 104.21 154.26
  Q 104.96 158.66 102.84 162.18
  C 101.09 165.09 96.01 166.21 93.62 167.61
  C 82.66 174.08 77.58 184.72 75.15 196.75
  A 0.35 0.35 0.0 0 0 75.71 197.10
  Q 90.49 185.59 107.45 191.71
  C 115.79 194.73 120.31 195.99 128.34 195.44
  A 1.89 1.89 0.0 0 0 129.94 194.34
  C 135.13 183.01 134.35 172.08 129.40 160.83
  C 125.75 152.53 123.52 148.12 132.27 142.49
  C 135.37 140.49 134.33 135.90 133.42 133.07
  A 0.81 0.79 -12.0 0 0 132.57 132.53
  Q 128.88 132.98 127.97 129.60
  Q 127.81 129.01 127.34 128.62
  C 123.69 125.58 119.74 126.35 115.48 125.24
  A 0.88 0.86 -89.6 0 1 114.85 124.59
  L 113.79 120.02
  A 0.39 0.39 0.0 0 0 113.03 120.02
  L 112.34 122.92
  A 0.65 0.65 0.0 0 1 111.18 123.15"
/>
<path stroke="#b0b0b4" vector-effect="non-scaling-stroke" d="
  M 60.46 173.71
  C 55.63 177.77 70.28 182.43 64.71 190.65
  A 0.65 0.64 36.9 0 0 64.84 191.52
  L 68.63 194.60
  Q 69.19 195.06 69.46 194.39
  C 72.80 186.17 74.22 173.67 61.42 173.37
  A 1.47 1.44 -64.0 0 0 60.46 173.71"
/>
</g>
<path fill="#ffffff" d="
  M 192.85 17.00
  Q 222.18 33.50 240.23 62.17
  C 243.27 67.01 245.78 72.83 248.42 78.24
  Q 251.03 83.58 252.64 89.07
  C 254.24 94.52 256.16 100.32 257.01 105.74
  Q 260.74 129.70 257.09 153.77
  Q 256.59 157.09 253.84 166.80
  Q 251.86 173.77 249.40 179.45
  C 231.44 220.82 196.90 248.63 152.32 256.95
  C 149.02 257.57 144.35 257.45 140.37 258.17
  C 133.64 259.38 124.53 259.19 117.80 257.99
  C 115.23 257.53 112.45 257.64 110.11 257.25
  Q 70.89 250.65 41.90 224.19
  Q 38.30 220.91 33.89 215.53
  C 30.54 211.46 26.87 207.39 24.05 203.28
  Q 7.85 179.63 2.91 151.30
  C 2.40 148.38 2.58 143.89 1.83 140.20
  C 0.68 134.53 1.21 127.92 1.29 122.13
  Q 1.31 120.45 2.00 116.94
  C 2.47 114.58 2.27 112.06 2.67 109.87
  Q 5.54 94.37 8.10 87.50
  Q 15.20 68.47 24.71 54.95
  Q 30.19 47.16 38.45 38.85
  C 55.33 21.88 76.20 10.26 99.48 4.51
  C 103.55 3.50 109.08 2.82 113.89 1.89
  Q 116.93 1.30 119.68 1.27
  C 130.13 1.16 140.71 0.64 151.05 2.58
  C 163.07 4.83 169.98 6.44 180.08 10.78
  Q 187.31 13.88 192.85 17.00
  Z
  M 112.96 37.35
  Q 108.73 32.77 103.72 29.14
  C 100.82 27.04 99.26 25.00 100.20 21.50
  A 0.38 0.38 0.0 0 0 99.56 21.14
  C 92.58 28.31 93.40 34.49 94.82 43.59
  A 0.71 0.71 0.0 0 1 94.12 44.41
  L 90.21 44.44
  A 0.34 0.34 0.0 0 0 90.00 45.05
  L 92.41 47.02
  Q 92.96 47.46 92.55 48.04
  Q 90.72 50.65 89.08 53.36
  C 86.57 57.50 80.80 60.43 77.44 55.35
  Q 76.93 54.59 76.91 55.50
  C 76.81 60.59 82.09 60.11 85.54 59.92
  A 0.38 0.37 21.9 0 1 85.82 60.57
  C 83.46 62.76 81.95 64.70 82.06 68.20
  C 82.28 75.21 82.38 80.25 78.66 85.41
  Q 70.42 96.87 61.59 106.43
  C 59.67 108.50 58.89 110.53 58.47 113.17
  C 57.78 117.54 61.35 124.41 63.16 128.38
  A 1.57 1.57 0.0 0 0 64.30 129.27
  Q 67.51 129.86 70.31 131.78
  C 75.59 135.42 81.90 132.06 85.42 127.76
  C 86.29 126.68 86.29 125.63 86.55 124.31
  Q 86.65 123.80 87.08 123.51
  Q 95.96 117.48 104.83 111.44
  C 105.86 110.74 107.66 110.30 108.91 110.41
  C 127.33 112.06 140.19 100.46 145.40 83.54
  Q 146.11 81.23 146.16 83.65
  C 146.35 93.22 144.95 103.22 153.49 110.32
  C 159.29 115.14 171.47 113.76 171.83 104.25
  Q 171.89 102.47 170.16 97.67
  Q 167.36 89.89 168.20 81.50
  Q 168.24 81.13 167.77 81.22
  Q 167.37 81.30 167.29 81.69
  Q 165.53 89.64 167.43 94.76
  Q 169.56 100.52 169.56 102.49
  C 169.55 108.60 164.36 112.90 158.57 110.15
  C 151.81 106.95 149.79 101.85 149.20 94.29
  Q 148.60 86.68 149.01 78.98
  Q 149.03 78.50 149.44 78.24
  C 159.89 71.54 171.45 68.36 183.29 73.02
  Q 188.54 75.08 190.19 76.04
  C 196.28 79.57 196.36 84.41 196.95 90.87
  Q 196.99 91.37 197.40 91.65
  L 215.12 103.65
  A 1.28 1.27 24.0 0 1 215.65 105.02
  C 214.41 109.93 214.98 117.04 208.28 118.00
  A 0.96 0.95 8.7 0 0 207.55 118.53
  C 205.74 122.17 199.29 122.28 195.49 122.46
  Q 185.63 122.95 175.75 123.62
  C 163.78 124.43 159.24 140.85 159.97 150.25
  Q 160.28 154.20 158.61 161.51
  Q 157.95 164.40 156.03 167.99
  C 151.71 176.10 148.06 186.68 150.02 195.66
  A 0.80 0.80 0.0 0 0 150.65 196.28
  C 156.72 197.44 164.98 195.22 170.91 193.83
  A 1.50 1.49 70.1 0 1 172.59 194.62
  Q 176.09 201.61 172.27 208.24
  A 0.38 0.37 3.2 0 0 172.75 208.77
  C 200.92 196.71 222.34 175.25 228.46 144.74
  Q 233.04 121.93 230.12 99.08
  A 0.38 0.38 0.0 0 0 229.40 98.97
  Q 227.01 104.09 223.59 108.61
  Q 222.11 110.58 222.42 108.14
  C 224.85 89.23 220.40 70.44 207.77 55.47
  A 0.39 0.39 0.0 0 0 207.09 55.78
  Q 208.91 68.38 206.93 80.93
  A 0.39 0.39 0.0 0 1 206.24 81.11
  L 205.74 80.46
  Q 205.57 80.25 205.50 79.99
  Q 196.32 47.56 168.00 29.52
  A 0.31 0.31 0.0 0 0 167.59 29.98
  C 175.67 39.98 182.34 51.53 182.48 64.77
  A 0.52 0.51 -82.9 0 1 181.83 65.28
  Q 181.55 65.21 181.47 64.88
  Q 181.37 64.47 181.34 64.39
  C 172.90 44.39 155.63 31.49 136.02 24.55
  A 0.27 0.26 80.0 0 0 135.73 24.97
  C 141.66 32.28 146.00 41.12 142.19 50.64
  A 0.51 0.51 0.0 0 1 141.21 50.51
  Q 139.36 34.12 124.34 27.78
  C 120.91 26.33 117.87 18.22 116.21 14.82
  A 0.86 0.86 0.0 0 0 114.81 14.60
  C 108.68 21.15 109.72 29.44 113.27 37.14
  Q 113.77 38.23 112.96 37.35
  Z
  M 112.42 213.59
  Q 112.71 213.19 114.51 213.27
  Q 128.46 213.86 142.40 214.56
  C 151.97 215.04 166.28 215.04 167.82 202.62
  Q 168.03 200.95 166.39 200.60
  Q 165.43 200.39 164.01 200.57
  Q 140.97 203.42 117.99 199.97
  Q 108.59 198.56 99.22 196.90
  C 88.65 195.04 81.34 200.13 73.81 206.54
  Q 73.43 206.86 73.06 206.54
  C 49.89 186.15 33.88 160.49 33.61 128.75
  Q 33.50 115.50 34.78 103.74
  C 37.85 75.57 56.19 51.22 79.14 35.20
  A 0.33 0.33 0.0 0 0 78.82 34.63
  C 63.00 41.72 49.54 54.83 39.92 67.93
  Q 14.84 102.08 19.03 144.01
  C 22.52 178.92 42.71 207.55 72.52 225.50
  C 119.26 253.65 177.91 244.13 213.46 202.99
  A 1.30 1.30 0.0 0 0 213.00 200.96
  C 207.41 198.48 204.10 200.57 199.67 204.72
  Q 182.86 220.43 161.34 226.36
  Q 134.58 233.73 112.82 216.47
  A 2.10 2.10 0.0 0 1 112.42 213.59
  Z
  M 111.18 123.15
  L 108.82 119.80
  A 0.76 0.75 -58.0 0 0 107.46 120.12
  Q 106.70 124.67 104.49 128.91
  C 100.41 136.76 102.55 144.46 104.21 154.26
  Q 104.96 158.66 102.84 162.18
  C 101.09 165.09 96.01 166.21 93.62 167.61
  C 82.66 174.08 77.58 184.72 75.15 196.75
  A 0.35 0.35 0.0 0 0 75.71 197.10
  Q 90.49 185.59 107.45 191.71
  C 115.79 194.73 120.31 195.99 128.34 195.44
  A 1.89 1.89 0.0 0 0 129.94 194.34
  C 135.13 183.01 134.35 172.08 129.40 160.83
  C 125.75 152.53 123.52 148.12 132.27 142.49
  C 135.37 140.49 134.33 135.90 133.42 133.07
  A 0.81 0.79 -12.0 0 0 132.57 132.53
  Q 128.88 132.98 127.97 129.60
  Q 127.81 129.01 127.34 128.62
  C 123.69 125.58 119.74 126.35 115.48 125.24
  A 0.88 0.86 -89.6 0 1 114.85 124.59
  L 113.79 120.02
  A 0.39 0.39 0.0 0 0 113.03 120.02
  L 112.34 122.92
  A 0.65 0.65 0.0 0 1 111.18 123.15
  Z
  M 60.46 173.71
  C 55.63 177.77 70.28 182.43 64.71 190.65
  A 0.65 0.64 36.9 0 0 64.84 191.52
  L 68.63 194.60
  Q 69.19 195.06 69.46 194.39
  C 72.80 186.17 74.22 173.67 61.42 173.37
  A 1.47 1.44 -64.0 0 0 60.46 173.71
  Z"
/>
<path fill="#606068" d="
  M 113.27 37.14
  C 109.72 29.44 108.68 21.15 114.81 14.60
  A 0.86 0.86 0.0 0 1 116.21 14.82
  C 117.87 18.22 120.91 26.33 124.34 27.78
  Q 139.36 34.12 141.21 50.51
  A 0.51 0.51 0.0 0 0 142.19 50.64
  C 146.00 41.12 141.66 32.28 135.73 24.97
  A 0.27 0.26 80.0 0 1 136.02 24.55
  C 155.63 31.49 172.90 44.39 181.34 64.39
  Q 181.37 64.47 181.47 64.88
  Q 181.55 65.21 181.83 65.28
  A 0.52 0.51 -82.9 0 0 182.48 64.77
  C 182.34 51.53 175.67 39.98 167.59 29.98
  A 0.31 0.31 0.0 0 1 168.00 29.52
  Q 196.32 47.56 205.50 79.99
  Q 205.57 80.25 205.74 80.46
  L 206.24 81.11
  A 0.39 0.39 0.0 0 0 206.93 80.93
  Q 208.91 68.38 207.09 55.78
  A 0.39 0.39 0.0 0 1 207.77 55.47
  C 220.40 70.44 224.85 89.23 222.42 108.14
  Q 222.11 110.58 223.59 108.61
  Q 227.01 104.09 229.40 98.97
  A 0.38 0.38 0.0 0 1 230.12 99.08
  Q 233.04 121.93 228.46 144.74
  C 222.34 175.25 200.92 196.71 172.75 208.77
  A 0.38 0.37 3.2 0 1 172.27 208.24
  Q 176.09 201.61 172.59 194.62
  A 1.50 1.49 70.1 0 0 170.91 193.83
  C 164.98 195.22 156.72 197.44 150.65 196.28
  A 0.80 0.80 0.0 0 1 150.02 195.66
  C 148.06 186.68 151.71 176.10 156.03 167.99
  Q 157.95 164.40 158.61 161.51
  Q 160.28 154.20 159.97 150.25
  C 159.24 140.85 163.78 124.43 175.75 123.62
  Q 185.63 122.95 195.49 122.46
  C 199.29 122.28 205.74 122.17 207.55 118.53
  A 0.96 0.95 8.7 0 1 208.28 118.00
  C 214.98 117.04 214.41 109.93 215.65 105.02
  A 1.28 1.27 24.0 0 0 215.12 103.65
  L 197.40 91.65
  Q 196.99 91.37 196.95 90.87
  C 196.36 84.41 196.28 79.57 190.19 76.04
  Q 188.54 75.08 183.29 73.02
  C 171.45 68.36 159.89 71.54 149.44 78.24
  Q 149.03 78.50 149.01 78.98
  Q 148.60 86.68 149.20 94.29
  C 149.79 101.85 151.81 106.95 158.57 110.15
  C 164.36 112.90 169.55 108.60 169.56 102.49
  Q 169.56 100.52 167.43 94.76
  Q 165.53 89.64 167.29 81.69
  Q 167.37 81.30 167.77 81.22
  Q 168.24 81.13 168.20 81.50
  Q 167.36 89.89 170.16 97.67
  Q 171.89 102.47 171.83 104.25
  C 171.47 113.76 159.29 115.14 153.49 110.32
  C 144.95 103.22 146.35 93.22 146.16 83.65
  Q 146.11 81.23 145.40 83.54
  C 140.19 100.46 127.33 112.06 108.91 110.41
  C 107.66 110.30 105.86 110.74 104.83 111.44
  Q 95.96 117.48 87.08 123.51
  Q 86.65 123.80 86.55 124.31
  C 86.29 125.63 86.29 126.68 85.42 127.76
  C 81.90 132.06 75.59 135.42 70.31 131.78
  Q 67.51 129.86 64.30 129.27
  A 1.57 1.57 0.0 0 1 63.16 128.38
  C 61.35 124.41 57.78 117.54 58.47 113.17
  C 58.89 110.53 59.67 108.50 61.59 106.43
  Q 70.42 96.87 78.66 85.41
  C 82.38 80.25 82.28 75.21 82.06 68.20
  C 81.95 64.70 83.46 62.76 85.82 60.57
  A 0.38 0.37 21.9 0 0 85.54 59.92
  C 82.09 60.11 76.81 60.59 76.91 55.50
  Q 76.93 54.59 77.44 55.35
  C 80.80 60.43 86.57 57.50 89.08 53.36
  Q 90.72 50.65 92.55 48.04
  Q 92.96 47.46 92.41 47.02
  L 90.00 45.05
  A 0.34 0.34 0.0 0 1 90.21 44.44
  L 94.12 44.41
  A 0.71 0.71 0.0 0 0 94.82 43.59
  C 93.40 34.49 92.58 28.31 99.56 21.14
  A 0.38 0.38 0.0 0 1 100.20 21.50
  C 99.26 25.00 100.82 27.04 103.72 29.14
  Q 108.73 32.77 112.96 37.35
  Q 113.77 38.23 113.27 37.14
  Z"
/>
<path fill="#40a9b6" d="
  M 112.42 213.59
  A 2.10 2.10 0.0 0 0 112.82 216.47
  Q 134.58 233.73 161.34 226.36
  Q 182.86 220.43 199.67 204.72
  C 204.10 200.57 207.41 198.48 213.00 200.96
  A 1.30 1.30 0.0 0 1 213.46 202.99
  C 177.91 244.13 119.26 253.65 72.52 225.50
  C 42.71 207.55 22.52 178.92 19.03 144.01
  Q 14.84 102.08 39.92 67.93
  C 49.54 54.83 63.00 41.72 78.82 34.63
  A 0.33 0.33 0.0 0 1 79.14 35.20
  C 56.19 51.22 37.85 75.57 34.78 103.74
  Q 33.50 115.50 33.61 128.75
  C 33.88 160.49 49.89 186.15 73.06 206.54
  Q 73.43 206.86 73.81 206.54
  C 81.34 200.13 88.65 195.04 99.22 196.90
  Q 108.59 198.56 117.99 199.97
  Q 140.97 203.42 164.01 200.57
  Q 165.43 200.39 166.39 200.60
  Q 168.03 200.95 167.82 202.62
  C 166.28 215.04 151.97 215.04 142.40 214.56
  Q 128.46 213.86 114.51 213.27
  Q 112.71 213.19 112.42 213.59
  Z"
/>
<path fill="#606068" d="
  M 112.34 122.92
  L 113.03 120.02
  A 0.39 0.39 0.0 0 1 113.79 120.02
  L 114.85 124.59
  A 0.88 0.86 -89.6 0 0 115.48 125.24
  C 119.74 126.35 123.69 125.58 127.34 128.62
  Q 127.81 129.01 127.97 129.60
  Q 128.88 132.98 132.57 132.53
  A 0.81 0.79 -12.0 0 1 133.42 133.07
  C 134.33 135.90 135.37 140.49 132.27 142.49
  C 123.52 148.12 125.75 152.53 129.40 160.83
  C 134.35 172.08 135.13 183.01 129.94 194.34
  A 1.89 1.89 0.0 0 1 128.34 195.44
  C 120.31 195.99 115.79 194.73 107.45 191.71
  Q 90.49 185.59 75.71 197.10
  A 0.35 0.35 0.0 0 1 75.15 196.75
  C 77.58 184.72 82.66 174.08 93.62 167.61
  C 96.01 166.21 101.09 165.09 102.84 162.18
  Q 104.96 158.66 104.21 154.26
  C 102.55 144.46 100.41 136.76 104.49 128.91
  Q 106.70 124.67 107.46 120.12
  A 0.76 0.75 -58.0 0 1 108.82 119.80
  L 111.18 123.15
  A 0.65 0.65 0.0 0 0 112.34 122.92
  Z"
/>
<path fill="#606068" d="
  M 64.71 190.65
  C 70.28 182.43 55.63 177.77 60.46 173.71
  A 1.47 1.44 -64.0 0 1 61.42 173.37
  C 74.22 173.67 72.80 186.17 69.46 194.39
  Q 69.19 195.06 68.63 194.60
  L 64.84 191.52
  A 0.65 0.64 36.9 0 1 64.71 190.65
  Z"
/>
</svg>
